<?xml version="1.0" encoding="UTF-8" standalone="no"?>
<!DOCTYPE svg PUBLIC "-//W3C//DTD SVG 1.1//EN" "http://www.w3.org/Graphics/SVG/1.1/DTD/svg11.dtd">
<svg version="1.1" xmlns="http://www.w3.org/2000/svg" xmlns:xlink="http://www.w3.org/1999/xlink" preserveAspectRatio="xMidYMid meet" viewBox="0 0 36 36" width="36" height="36"><defs><path d="M8.08 0.02L8.35 0.05L8.61 0.09L8.86 0.13L9.11 0.18L9.34 0.24L9.56 0.3L9.76 0.36L9.96 0.43L10.13 0.49L10.3 0.55L10.44 0.61L10.57 0.67L10.68 0.72L10.78 0.77L10.85 0.81L10.9 0.83L10.94 0.85L10.95 0.86L10.95 1.16L10.93 1.45L10.89 1.73L10.83 2L10.76 2.25L10.68 2.49L10.58 2.72L10.47 2.94L10.34 3.14L10.21 3.34L10.07 3.52L9.91 3.7L9.76 3.86L9.59 4.01L9.42 4.16L9.25 4.29L9.07 4.42L8.89 4.54L8.71 4.64L8.53 4.75L8.35 4.84L8.18 4.92L8.01 5L7.84 5.07L7.68 5.13L7.52 5.19L7.38 5.24L7.24 5.28L7.11 5.32L6.99 5.36L6.89 5.38L6.8 5.41L6.72 5.42L6.66 5.44L6.61 5.45L6.58 5.45L6.57 5.45L6.57 5.46L6.57 5.47L6.56 5.5L6.55 5.54L6.55 5.58L6.55 5.63L6.55 5.69L6.55 5.76L6.56 5.84L6.58 5.92L6.61 6.01L6.64 6.1L6.69 6.2L6.75 6.3L6.82 6.41L6.9 6.52L7 6.63L7.12 6.75L7.26 6.87L7.41 6.98L7.59 7.1L7.78 7.23L8 7.35L8.24 7.46L8.51 7.58L8.81 7.7L9.13 7.82L9.48 7.93L9.86 8.04L10.27 8.14L10.71 8.24L11.19 8.34L11.7 8.43L12.25 8.52L12.83 8.6L13.46 8.67L14.12 8.74L15.02 8.82L15.88 8.9L16.71 8.99L17.51 9.08L18.28 9.18L19.01 9.28L19.72 9.38L20.4 9.49L21.05 9.61L21.68 9.72L22.28 9.85L22.86 9.97L23.41 10.1L23.94 10.24L24.45 10.38L24.94 10.53L25.41 10.68L25.85 10.84L26.28 11.01L26.7 11.18L27.09 11.35L27.47 11.53L27.84 11.72L28.19 11.92L28.53 12.12L28.86 12.33L29.18 12.54L29.49 12.76L29.79 12.99L30.08 13.22L30.36 13.47L30.63 13.72L30.91 13.97L31.17 14.24L31.43 14.51L31.69 14.79L31.95 15.08L32.19 15.36L32.41 15.65L32.63 15.93L32.85 16.21L33.05 16.49L33.24 16.77L33.43 17.05L33.61 17.33L33.79 17.61L33.95 17.89L34.11 18.16L34.26 18.44L34.41 18.71L34.55 18.98L34.68 19.26L34.8 19.53L34.92 19.79L35.03 20.06L35.13 20.33L35.23 20.59L35.32 20.86L35.41 21.12L35.49 21.38L35.56 21.64L35.63 21.89L35.69 22.15L35.74 22.4L35.79 22.65L35.84 22.9L35.88 23.15L35.91 23.39L35.94 23.64L35.96 23.88L35.98 24.12L35.99 24.35L36 24.59L36 24.82L35.99 25.35L35.97 25.86L35.93 26.37L35.88 26.87L35.82 27.36L35.74 27.85L35.65 28.31L35.54 28.77L35.42 29.22L35.28 29.66L35.13 30.08L34.97 30.49L34.79 30.89L34.6 31.28L34.39 31.66L34.17 32.02L33.93 32.36L33.68 32.7L33.42 33.02L33.14 33.32L32.85 33.61L32.54 33.89L32.22 34.15L31.89 34.39L31.54 34.62L31.18 34.83L30.8 35.02L30.41 35.2L30 35.36L29.58 35.5L29.15 35.63L28.71 35.73L28.24 35.82L27.77 35.89L27.28 35.94L26.78 35.97L26.26 35.98L25.9 35.97L25.56 35.95L25.22 35.91L24.89 35.86L24.57 35.8L24.26 35.73L23.96 35.64L23.67 35.55L23.4 35.44L23.13 35.32L22.87 35.19L22.62 35.06L22.38 34.91L22.15 34.76L21.93 34.6L21.72 34.43L21.53 34.25L21.34 34.07L21.16 33.89L20.99 33.7L20.83 33.5L20.68 33.3L20.54 33.1L20.41 32.89L20.28 32.68L20.17 32.47L20.07 32.26L19.98 32.05L19.9 31.83L19.83 31.62L19.76 31.41L19.71 31.2L19.67 30.99L19.63 30.78L19.61 30.58L19.59 30.38L19.59 30.18L19.6 29.93L19.61 29.7L19.64 29.47L19.67 29.25L19.71 29.03L19.77 28.82L19.83 28.63L19.9 28.43L19.98 28.25L20.06 28.07L20.15 27.9L20.25 27.74L20.36 27.58L20.47 27.43L20.59 27.29L20.71 27.15L20.84 27.02L20.97 26.9L21.11 26.79L21.25 26.68L21.4 26.57L21.54 26.48L21.7 26.39L21.85 26.31L22.01 26.23L22.17 26.16L22.33 26.1L22.49 26.04L22.66 25.99L22.82 25.95L22.99 25.91L23.15 25.88L23.32 25.85L23.48 25.83L23.64 25.81L23.81 25.81L23.97 25.8L24.12 25.81L24.28 25.82L24.43 25.83L24.58 25.86L24.73 25.89L24.88 25.92L25.02 25.96L25.16 26.01L25.29 26.06L25.43 26.12L25.55 26.18L25.68 26.25L25.8 26.32L25.92 26.39L26.03 26.47L26.14 26.55L26.25 26.63L26.35 26.72L26.45 26.8L26.54 26.9L26.63 26.99L26.71 27.08L26.79 27.18L26.87 27.28L26.94 27.38L27 27.47L27.06 27.57L27.12 27.67L27.17 27.77L27.21 27.87L27.25 27.97L27.28 28.07L27.31 28.17L27.33 28.26L27.34 28.36L27.35 28.45L27.36 28.54L27.35 28.64L27.35 28.75L27.34 28.85L27.32 28.94L27.3 29.04L27.28 29.13L27.25 29.22L27.21 29.31L27.18 29.4L27.14 29.48L27.1 29.56L27.05 29.64L27 29.71L26.95 29.79L26.89 29.86L26.83 29.93L26.77 29.99L26.71 30.05L26.64 30.11L26.57 30.17L26.5 30.22L26.43 30.28L26.35 30.33L26.27 30.37L26.2 30.42L26.12 30.46L26.03 30.5L25.95 30.53L25.87 30.56L25.78 30.59L25.7 30.62L25.61 30.65L25.52 30.67L25.43 30.69L25.35 30.7L25.26 30.72L25.17 30.73L25.23 30.71L25.29 30.68L25.35 30.66L25.41 30.63L25.46 30.6L25.52 30.57L25.57 30.54L25.62 30.5L25.67 30.47L25.72 30.43L25.76 30.39L25.81 30.34L25.85 30.3L25.89 30.25L25.91 30.24L25.91 30.23L25.95 30.21L25.99 30.18L26.03 30.15L26.07 30.12L26.11 30.08L26.15 30.05L26.19 30.02L26.23 29.98L26.26 29.95L26.3 29.91L26.34 29.87L26.37 29.84L26.4 29.8L26.43 29.76L26.46 29.72L26.49 29.67L26.52 29.63L26.55 29.59L26.58 29.54L26.6 29.5L26.63 29.45L26.65 29.4L26.67 29.36L26.69 29.31L26.71 29.26L26.72 29.21L26.74 29.15L26.75 29.1L26.77 29.05L26.78 28.99L26.79 28.94L26.8 28.88L26.8 28.82L26.81 28.77L26.81 28.71L26.81 28.65L26.81 28.57L26.8 28.49L26.79 28.41L26.77 28.32L26.75 28.24L26.72 28.16L26.69 28.07L26.66 27.98L26.62 27.9L26.57 27.81L26.52 27.73L26.47 27.64L26.41 27.56L26.35 27.47L26.29 27.39L26.22 27.31L26.15 27.23L26.07 27.15L25.99 27.07L25.91 27L25.82 26.93L25.73 26.86L25.63 26.79L25.54 26.73L25.43 26.67L25.33 26.61L25.22 26.55L25.11 26.5L25 26.46L24.88 26.41L24.76 26.37L24.64 26.34L24.52 26.31L24.39 26.29L24.26 26.27L24.13 26.25L23.99 26.24L23.86 26.24L23.72 26.24L23.58 26.25L23.44 26.27L23.3 26.29L23.15 26.31L23.01 26.34L22.87 26.38L22.73 26.42L22.59 26.47L22.45 26.52L22.31 26.58L22.18 26.64L22.04 26.71L21.91 26.78L21.78 26.86L21.65 26.94L21.53 27.03L21.4 27.12L21.29 27.21L21.17 27.31L21.06 27.41L20.95 27.52L20.85 27.63L20.75 27.75L20.66 27.87L20.57 27.99L20.49 28.12L20.42 28.25L20.35 28.39L20.28 28.52L20.22 28.66L20.17 28.81L20.13 28.96L20.09 29.11L20.07 29.26L20.04 29.42L20.03 29.58L20.03 29.74L20.04 30.08L20.06 30.4L20.1 30.72L20.16 31.01L20.22 31.3L20.31 31.57L20.4 31.83L20.51 32.08L20.63 32.31L20.76 32.54L20.9 32.75L21.05 32.95L21.21 33.14L21.38 33.32L21.56 33.49L21.74 33.65L21.93 33.79L22.12 33.93L22.32 34.06L22.53 34.18L22.74 34.3L22.95 34.4L23.17 34.49L23.38 34.58L23.6 34.66L23.82 34.73L24.04 34.8L24.26 34.85L24.47 34.9L24.69 34.95L24.9 34.99L25.11 35.02L25.32 35.05L25.52 35.07L25.71 35.08L25.9 35.09L26.09 35.1L26.26 35.1L26.65 35.09L27.03 35.07L27.41 35.03L27.77 34.97L28.14 34.9L28.49 34.81L28.85 34.7L29.19 34.58L29.52 34.45L29.85 34.3L30.17 34.14L30.49 33.96L30.79 33.77L31.09 33.56L31.38 33.34L31.65 33.11L31.92 32.87L32.18 32.61L32.43 32.34L32.67 32.06L32.9 31.76L33.11 31.46L33.32 31.14L33.52 30.81L33.7 30.47L33.87 30.12L34.03 29.76L34.18 29.38L34.31 29L34.43 28.61L34.54 28.21L34.64 27.8L34.72 27.38L34.78 26.95L34.84 26.51L34.87 26.06L34.9 25.61L34.9 25.15L34.9 25.04L34.89 24.77L34.88 24.5L34.85 24.23L34.82 23.96L34.79 23.69L34.75 23.43L34.7 23.16L34.65 22.89L34.59 22.62L34.53 22.35L34.46 22.09L34.38 21.82L34.3 21.55L34.22 21.29L34.12 21.02L34.03 20.76L33.92 20.5L33.82 20.24L33.7 19.98L33.58 19.72L33.46 19.46L33.33 19.21L33.19 18.95L33.05 18.7L32.9 18.45L32.75 18.2L32.6 17.96L32.43 17.71L32.27 17.47L32.09 17.23L31.92 16.99L31.73 16.76L31.55 16.53L31.35 16.3L31.15 16.07L30.95 15.85L30.74 15.63L30.53 15.41L30.23 15.12L29.93 14.84L29.63 14.58L29.33 14.32L29.03 14.08L28.73 13.84L28.43 13.61L28.12 13.4L27.81 13.19L27.49 12.99L27.17 12.8L26.85 12.61L26.52 12.44L26.18 12.27L25.83 12.11L25.47 11.95L25.1 11.8L24.72 11.66L24.33 11.53L23.93 11.39L23.52 11.27L23.09 11.15L22.65 11.03L22.19 10.92L21.72 10.81L21.23 10.7L20.72 10.6L20.2 10.5L19.66 10.41L19.09 10.31L18.51 10.22L17.9 10.13L17.28 10.04L16.63 9.96L15.96 9.87L15.26 9.78L14.54 9.7L13.79 9.61L13.06 9.52L12.36 9.42L11.71 9.31L11.11 9.19L10.54 9.07L10.02 8.93L9.53 8.8L9.08 8.65L8.66 8.5L8.28 8.35L7.93 8.19L7.61 8.03L7.32 7.87L7.06 7.71L6.83 7.54L6.62 7.37L6.44 7.21L6.27 7.04L6.13 6.88L6.02 6.71L5.91 6.55L5.83 6.39L5.76 6.24L5.71 6.09L5.67 5.95L5.64 5.81L5.62 5.67L5.61 5.55L5.61 5.43L5.61 5.32L5.62 5.22L5.63 5.12L5.65 5.04L5.66 4.97L5.67 4.91L5.69 4.86L5.69 4.82L5.7 4.8L5.71 4.8L5.73 4.8L5.77 4.79L5.83 4.79L5.9 4.78L5.99 4.78L6.08 4.76L6.19 4.75L6.31 4.73L6.44 4.71L6.58 4.69L6.73 4.66L6.88 4.62L7.05 4.58L7.21 4.54L7.39 4.49L7.56 4.43L7.74 4.36L7.93 4.29L8.11 4.21L8.3 4.12L8.48 4.03L8.66 3.92L8.85 3.81L9.03 3.69L9.2 3.56L9.37 3.41L9.54 3.26L9.7 3.1L9.85 2.92L10 2.74L10.14 2.54L10.26 2.33L10.38 2.1L10.49 1.87L10.58 1.62L10.66 1.35L10.73 1.08L10.72 1.07L10.69 1.06L10.65 1.03L10.59 1L10.51 0.97L10.42 0.93L10.32 0.88L10.2 0.83L10.07 0.78L9.92 0.73L9.77 0.68L9.6 0.63L9.42 0.59L9.23 0.54L9.03 0.51L8.83 0.47L8.61 0.45L8.39 0.43L8.16 0.42L7.92 0.42L7.68 0.43L7.43 0.46L7.18 0.49L6.93 0.55L6.67 0.61L6.41 0.7L6.14 0.8L5.88 0.92L5.61 1.06L5.35 1.22L5.08 1.4L4.82 1.6L4.55 1.83L4.29 2.09L4.04 2.37L3.78 2.67L3.54 3.01L3.29 3.37L3.16 3.59L3.04 3.82L2.94 4.04L2.85 4.28L2.77 4.51L2.71 4.75L2.65 4.99L2.61 5.24L2.58 5.48L2.56 5.73L2.55 5.98L2.55 6.23L2.56 6.48L2.58 6.73L2.61 6.98L2.64 7.23L2.68 7.47L2.73 7.71L2.78 7.96L2.85 8.19L2.91 8.43L2.99 8.66L3.06 8.89L3.14 9.11L3.23 9.32L3.32 9.54L3.41 9.74L3.5 9.94L3.6 10.13L3.7 10.32L3.8 10.49L3.9 10.66L4 10.82L4.1 10.97L4.2 11.11L4.3 11.24L4.4 11.36L4.49 11.47L4.49 11.47L4.47 11.47L4.43 11.47L4.39 11.47L4.33 11.47L4.26 11.47L4.18 11.47L4.09 11.48L3.99 11.49L3.89 11.5L3.78 11.52L3.66 11.54L3.54 11.56L3.41 11.59L3.27 11.63L3.14 11.67L3 11.72L2.86 11.78L2.72 11.84L2.57 11.91L2.43 11.99L2.29 12.08L2.15 12.18L2.01 12.28L1.88 12.4L1.75 12.53L1.63 12.67L1.51 12.82L1.39 12.98L1.29 13.16L1.19 13.35L1.1 13.55L1.02 13.77L0.94 14L0.88 14.25L0.84 14.51L0.8 14.79L0.77 15.08L0.77 15.2L0.76 15.32L0.76 15.44L0.76 15.56L0.77 15.68L0.77 15.79L0.78 15.91L0.79 16.02L0.81 16.14L0.82 16.25L0.84 16.37L0.86 16.48L0.89 16.6L0.92 16.71L0.95 16.83L0.98 16.94L1.01 17.05L1.05 17.17L1.09 17.28L1.13 17.4L1.18 17.51L1.22 17.63L1.27 17.74L1.33 17.86L1.38 17.98L1.44 18.09L1.5 18.21L1.56 18.33L1.62 18.45L1.69 18.57L1.76 18.69L1.83 18.81L1.9 18.93L1.98 19.06L2.06 19.18L2.14 19.31L2.22 19.44L2.31 19.57L2.3 19.56L2.29 19.53L2.28 19.49L2.26 19.43L2.24 19.35L2.22 19.26L2.19 19.16L2.16 19.04L2.13 18.91L2.1 18.77L2.07 18.62L2.04 18.46L2.01 18.29L1.98 18.11L1.95 17.93L1.93 17.74L1.9 17.54L1.88 17.34L1.87 17.13L1.86 16.92L1.85 16.71L1.85 16.5L1.86 16.29L1.87 16.07L1.89 15.86L1.92 15.65L1.96 15.44L2 15.24L2.06 15.04L2.12 14.84L2.2 14.65L2.29 14.47L2.38 14.29L2.5 14.12L2.62 13.96L2.76 13.81L2.91 13.68L3.07 13.55L3.1 13.52L3.13 13.5L3.16 13.47L3.19 13.45L3.22 13.42L3.26 13.4L3.3 13.37L3.34 13.35L3.38 13.32L3.42 13.3L3.46 13.28L3.51 13.26L3.56 13.24L3.61 13.22L3.66 13.2L3.71 13.18L3.77 13.17L3.82 13.15L3.88 13.14L3.94 13.13L4 13.12L4.06 13.11L4.12 13.1L4.19 13.09L4.26 13.09L4.32 13.09L4.39 13.09L4.47 13.09L4.54 13.09L4.61 13.09L4.69 13.1L4.77 13.11L4.85 13.12L4.93 13.14L5.01 13.16L5.09 13.17L5.17 13.2L5.26 13.22L5.38 13.27L5.5 13.31L5.61 13.36L5.71 13.41L5.81 13.46L5.9 13.52L5.99 13.58L6.07 13.63L6.14 13.69L6.21 13.76L6.28 13.82L6.35 13.89L6.42 13.95L6.48 14.02L6.54 14.09L6.6 14.16L6.66 14.23L6.73 14.31L6.79 14.38L6.86 14.46L6.93 14.54L7 14.62L7.07 14.69L7.15 14.77L7.23 14.86L7.32 14.94L7.41 15.02L7.51 15.1L7.62 15.19L7.74 15.27L7.86 15.35L7.99 15.44L8.13 15.53L8.28 15.61L8.44 15.7L8.61 15.78L8.79 15.87L8.98 15.96L9.24 16.06L9.5 16.15L9.76 16.22L10.02 16.28L10.28 16.33L10.54 16.37L10.8 16.39L11.06 16.4L11.32 16.4L11.58 16.38L11.84 16.36L12.09 16.33L12.35 16.29L12.6 16.24L12.85 16.19L13.09 16.12L13.34 16.06L13.58 15.98L13.82 15.9L14.06 15.82L14.29 15.73L14.52 15.64L14.74 15.54L14.96 15.45L15.18 15.35L15.39 15.25L15.6 15.15L15.8 15.05L16 14.95L16.19 14.86L16.38 14.76L16.56 14.67L16.73 14.58L16.9 14.5L17.07 14.42L17.22 14.34L17.37 14.27L17.51 14.21L17.5 14.21L17.47 14.23L17.43 14.25L17.37 14.29L17.3 14.34L17.21 14.4L17.11 14.47L17 14.55L16.88 14.64L16.76 14.75L16.63 14.86L16.49 14.98L16.35 15.11L16.21 15.26L16.07 15.41L15.93 15.58L15.79 15.75L15.66 15.94L15.53 16.13L15.4 16.34L15.29 16.56L15.18 16.78L15.08 17.02L15 17.27L14.92 17.52L14.86 17.79L14.82 18.06L14.8 18.35L14.79 18.65L14.8 18.95L14.83 19.27L14.89 19.6L14.96 19.93L15.07 20.28L15.2 20.63L15.36 21L15.54 21.37L15.76 21.75L15.76 21.74L15.77 21.71L15.78 21.65L15.8 21.57L15.82 21.47L15.84 21.35L15.88 21.22L15.92 21.07L15.97 20.91L16.02 20.73L16.08 20.54L16.16 20.35L16.24 20.14L16.33 19.93L16.43 19.71L16.55 19.49L16.67 19.26L16.8 19.03L16.95 18.8L17.11 18.57L17.28 18.35L17.47 18.12L17.67 17.91L17.88 17.7L18.11 17.49L18.36 17.3L18.62 17.12L18.89 16.94L19.19 16.78L19.5 16.64L19.82 16.51L20.17 16.4L20.54 16.31L20.92 16.24L21.32 16.19L21.75 16.16L22.19 16.15L22.65 16.17L22.9 16.19L23.15 16.22L23.4 16.24L23.65 16.27L23.9 16.3L24.15 16.34L24.4 16.38L24.65 16.43L24.89 16.48L25.14 16.54L25.38 16.6L25.63 16.67L25.87 16.75L26.11 16.83L26.35 16.92L26.59 17.02L26.82 17.13L27.06 17.24L27.29 17.36L27.52 17.5L27.75 17.64L27.97 17.79L28.2 17.95L28.42 18.12L28.63 18.3L28.85 18.49L29.06 18.7L29.27 18.91L29.48 19.14L29.68 19.37L29.88 19.62L30.08 19.89L30.27 20.16L30.46 20.45L30.65 20.76L30.83 21.08L31.01 21.41L31.19 21.75L31.23 21.86L31.27 21.96L31.31 22.07L31.35 22.17L31.39 22.27L31.43 22.38L31.46 22.48L31.5 22.58L31.54 22.69L31.57 22.79L31.6 22.89L31.63 23L31.67 23.1L31.7 23.21L31.72 23.31L31.75 23.41L31.78 23.52L31.8 23.62L31.83 23.72L31.85 23.83L31.87 23.93L31.89 24.03L31.91 24.14L31.93 24.24L31.95 24.35L31.97 24.45L31.98 24.55L31.99 24.66L32.01 24.76L32.02 24.86L32.03 24.97L32.04 25.07L32.04 25.18L32.05 25.28L32.05 25.38L32.06 25.49L32.06 25.59L32.06 25.69L32.06 25.8L32.05 26.2L32.04 26.58L32.01 26.95L31.97 27.32L31.92 27.67L31.86 28.01L31.78 28.35L31.7 28.67L31.61 28.99L31.51 29.29L31.4 29.59L31.28 29.87L31.15 30.14L31.01 30.41L30.87 30.66L30.71 30.91L30.55 31.14L30.38 31.36L30.2 31.57L30.02 31.78L29.82 31.97L29.63 32.15L29.42 32.32L29.21 32.48L28.99 32.63L28.77 32.77L28.54 32.89L28.3 33.01L28.06 33.12L27.82 33.21L27.57 33.29L27.32 33.37L27.06 33.43L26.8 33.48L26.53 33.52L26.26 33.55L25.99 33.56L25.72 33.57L25.51 33.57L25.31 33.56L25.11 33.54L24.91 33.52L24.72 33.49L24.53 33.45L24.35 33.41L24.17 33.36L23.99 33.31L23.82 33.25L23.66 33.19L23.49 33.12L23.33 33.05L23.18 32.97L23.03 32.88L22.89 32.8L22.75 32.7L22.62 32.61L22.49 32.5L22.37 32.4L22.25 32.29L22.14 32.18L22.03 32.06L21.93 31.94L21.84 31.81L21.75 31.69L21.67 31.56L21.6 31.42L21.53 31.29L21.47 31.15L21.41 31.01L21.37 30.86L21.33 30.72L21.29 30.57L21.27 30.42L21.25 30.27L21.23 30.11L21.23 29.96L21.23 29.79L21.24 29.63L21.26 29.47L21.28 29.32L21.3 29.17L21.33 29.03L21.37 28.9L21.41 28.77L21.45 28.65L21.5 28.54L21.55 28.42L21.61 28.32L21.67 28.22L21.73 28.12L21.8 28.03L21.87 27.95L21.95 27.86L22.03 27.79L22.11 27.72L22.19 27.65L22.28 27.59L22.36 27.53L22.45 27.48L22.55 27.43L22.64 27.38L22.74 27.34L22.84 27.3L22.93 27.27L23.03 27.24L23.14 27.21L23.24 27.19L23.34 27.17L23.45 27.15L23.55 27.14L23.65 27.13L23.76 27.12L23.86 27.12L23.97 27.12L24.07 27.12L24.17 27.12L24.27 27.13L24.37 27.14L24.47 27.16L24.57 27.18L24.66 27.2L24.76 27.23L24.85 27.25L24.94 27.29L25.03 27.32L25.12 27.36L25.2 27.4L25.28 27.44L25.36 27.48L25.44 27.53L25.52 27.58L25.59 27.64L25.66 27.69L25.73 27.75L25.79 27.81L25.86 27.87L25.91 27.93L25.97 28L26.02 28.07L26.07 28.13L26.12 28.21L26.16 28.28L26.2 28.35L26.24 28.43L26.27 28.51L26.29 28.59L26.32 28.67L26.34 28.75L26.35 28.83L26.36 28.91L26.37 29L26.37 29.08L26.37 29.12L26.37 29.14L26.37 29.12L26.36 29.05L26.36 28.99L26.34 28.92L26.33 28.85L26.31 28.79L26.28 28.72L26.26 28.66L26.23 28.6L26.19 28.54L26.16 28.48L26.12 28.43L26.08 28.37L26.03 28.32L25.98 28.27L25.93 28.22L25.88 28.17L25.83 28.12L25.77 28.08L25.71 28.04L25.65 28L25.58 27.96L25.52 27.92L25.45 27.89L25.38 27.85L25.3 27.83L25.23 27.8L25.15 27.77L25.08 27.75L25 27.73L24.92 27.71L24.83 27.7L24.75 27.69L24.66 27.68L24.58 27.67L24.49 27.66L24.4 27.66L24.31 27.66L24.21 27.67L24.11 27.68L24.02 27.69L23.92 27.7L23.83 27.72L23.74 27.73L23.65 27.76L23.56 27.78L23.47 27.81L23.38 27.84L23.3 27.88L23.22 27.92L23.14 27.96L23.06 28L22.98 28.05L22.91 28.1L22.84 28.15L22.77 28.21L22.7 28.27L22.64 28.34L22.58 28.4L22.52 28.48L22.47 28.55L22.42 28.63L22.37 28.71L22.33 28.8L22.29 28.89L22.25 28.98L22.22 29.07L22.19 29.17L22.16 29.28L22.14 29.38L22.13 29.5L22.12 29.61L22.11 29.73L22.11 29.85L22.11 29.99L22.12 30.13L22.14 30.27L22.16 30.4L22.19 30.53L22.23 30.66L22.27 30.79L22.32 30.92L22.37 31.04L22.43 31.16L22.5 31.27L22.57 31.39L22.64 31.5L22.72 31.6L22.81 31.71L22.89 31.81L22.99 31.9L23.08 31.99L23.18 32.08L23.29 32.17L23.39 32.25L23.5 32.33L23.61 32.4L23.73 32.47L23.85 32.53L23.97 32.59L24.09 32.64L24.21 32.69L24.34 32.74L24.47 32.78L24.6 32.81L24.73 32.84L24.86 32.87L24.99 32.89L25.12 32.9L25.25 32.91L25.39 32.91L25.62 32.91L25.85 32.9L26.08 32.88L26.31 32.86L26.54 32.83L26.77 32.79L26.99 32.74L27.22 32.68L27.44 32.62L27.66 32.54L27.87 32.46L28.09 32.37L28.29 32.27L28.5 32.16L28.7 32.04L28.89 31.9L29.08 31.76L29.26 31.61L29.44 31.45L29.61 31.28L29.78 31.09L29.93 30.9L30.08 30.69L30.22 30.47L30.36 30.24L30.48 30L30.6 29.74L30.71 29.48L30.8 29.2L30.89 28.9L30.97 28.59L31.03 28.27L31.09 27.94L31.13 27.59L31.16 27.23L31.18 26.85L31.19 26.46L31.18 26.34L31.18 26.21L31.18 26.09L31.17 25.98L31.17 25.86L31.16 25.75L31.15 25.63L31.14 25.52L31.13 25.41L31.11 25.3L31.1 25.19L31.08 25.08L31.06 24.98L31.04 24.87L31.02 24.77L31 24.66L30.98 24.56L30.95 24.46L30.93 24.36L30.9 24.26L30.87 24.15L30.84 24.05L30.81 23.95L30.77 23.85L30.74 23.75L30.7 23.65L30.66 23.55L30.62 23.45L30.58 23.35L30.54 23.25L30.49 23.14L30.45 23.04L30.4 22.94L30.35 22.84L30.3 22.73L30.25 22.63L30.2 22.52L30.07 22.28L29.94 22.05L29.81 21.83L29.67 21.62L29.53 21.41L29.38 21.2L29.23 21.01L29.08 20.82L28.92 20.63L28.76 20.45L28.59 20.28L28.42 20.12L28.24 19.96L28.06 19.81L27.87 19.66L27.68 19.52L27.48 19.39L27.28 19.26L27.08 19.14L26.86 19.02L26.65 18.91L26.43 18.81L26.2 18.71L25.97 18.62L25.73 18.53L25.49 18.45L25.24 18.37L24.98 18.3L24.72 18.24L24.46 18.18L24.19 18.13L23.91 18.08L23.63 18.04L23.34 18L23.04 17.97L22.74 17.95L22.43 17.93L22.06 17.92L21.7 17.94L21.35 17.97L21.02 18.03L20.7 18.11L20.39 18.2L20.09 18.32L19.81 18.44L19.54 18.58L19.28 18.74L19.04 18.9L18.8 19.07L18.58 19.26L18.37 19.45L18.17 19.64L17.98 19.84L17.8 20.05L17.63 20.26L17.48 20.46L17.33 20.67L17.19 20.88L17.06 21.08L16.95 21.28L16.84 21.48L16.74 21.67L16.65 21.85L16.57 22.02L16.49 22.18L16.43 22.33L16.37 22.47L16.33 22.59L16.29 22.7L16.25 22.79L16.23 22.86L16.21 22.91L16.2 22.95L16.2 22.96L15.98 22.74L15.77 22.53L15.57 22.31L15.39 22.09L15.23 21.87L15.07 21.65L14.93 21.43L14.8 21.22L14.68 21L14.58 20.78L14.48 20.57L14.39 20.36L14.32 20.15L14.25 19.94L14.19 19.74L14.14 19.55L14.09 19.35L14.05 19.17L14.02 18.98L14 18.81L13.98 18.64L13.96 18.48L13.95 18.32L13.95 18.17L13.95 18.03L13.95 17.9L13.95 17.78L13.95 17.67L13.96 17.57L13.97 17.48L13.98 17.39L13.99 17.32L13.99 17.27L14 17.22L14.01 17.19L14.01 17.17L14.01 17.16L13.98 17.16L13.94 17.17L13.9 17.18L13.84 17.2L13.78 17.22L13.72 17.24L13.64 17.27L13.56 17.3L13.47 17.33L13.37 17.36L13.27 17.39L13.16 17.42L13.05 17.46L12.92 17.49L12.79 17.52L12.66 17.54L12.51 17.57L12.36 17.59L12.21 17.61L12.05 17.62L11.88 17.63L11.71 17.63L11.53 17.63L11.34 17.62L11.15 17.61L10.95 17.59L10.75 17.56L10.54 17.52L10.33 17.47L10.11 17.42L9.89 17.35L9.66 17.27L9.42 17.19L9.18 17.09L8.94 16.98L8.69 16.86L8.43 16.72L8.21 16.6L8 16.48L7.8 16.36L7.61 16.25L7.44 16.14L7.27 16.04L7.12 15.94L6.97 15.84L6.83 15.74L6.71 15.65L6.59 15.57L6.47 15.48L6.37 15.41L6.27 15.33L6.18 15.26L6.09 15.19L6.01 15.13L5.93 15.07L5.85 15.01L5.78 14.96L5.71 14.91L5.64 14.87L5.58 14.83L5.51 14.8L5.44 14.77L5.38 14.74L5.31 14.72L5.25 14.7L5.18 14.69L5.11 14.68L5.03 14.68L4.95 14.68L4.87 14.68L4.79 14.69L4.69 14.71L4.6 14.73L4.49 14.75L4.31 14.82L4.13 14.9L3.97 15L3.83 15.12L3.69 15.26L3.57 15.41L3.46 15.57L3.36 15.75L3.28 15.94L3.2 16.14L3.13 16.34L3.07 16.56L3.02 16.78L2.98 17.01L2.95 17.24L2.92 17.47L2.9 17.71L2.89 17.94L2.88 18.18L2.87 18.41L2.87 18.64L2.88 18.87L2.89 19.09L2.9 19.3L2.91 19.5L2.93 19.7L2.94 19.88L2.96 20.06L2.98 20.22L3 20.36L3.01 20.49L3.03 20.61L3.04 20.7L3.05 20.78L3.06 20.83L3.07 20.87L3.07 20.88L3.06 20.87L3.04 20.86L3.01 20.83L2.97 20.79L2.91 20.74L2.84 20.68L2.77 20.61L2.68 20.53L2.59 20.44L2.49 20.33L2.38 20.22L2.27 20.1L2.15 19.97L2.03 19.83L1.91 19.69L1.78 19.53L1.65 19.37L1.52 19.19L1.39 19.01L1.27 18.82L1.14 18.62L1.02 18.42L0.9 18.2L0.78 17.98L0.67 17.76L0.56 17.52L0.46 17.28L0.37 17.03L0.29 16.78L0.21 16.52L0.15 16.25L0.1 15.98L0.05 15.7L0.02 15.42L0 15.13L0 14.83L0.01 14.53L0.03 14.25L0.06 13.98L0.1 13.72L0.15 13.48L0.21 13.25L0.28 13.03L0.35 12.83L0.42 12.64L0.51 12.46L0.59 12.29L0.69 12.13L0.78 11.98L0.88 11.85L0.98 11.72L1.09 11.6L1.19 11.5L1.3 11.4L1.4 11.31L1.51 11.23L1.62 11.15L1.72 11.08L1.82 11.02L1.92 10.97L2.02 10.92L2.11 10.88L2.2 10.85L2.29 10.82L2.37 10.79L2.44 10.77L2.51 10.75L2.57 10.74L2.62 10.72L2.66 10.72L2.7 10.71L2.72 10.71L2.74 10.71L2.74 10.7L2.67 10.59L2.6 10.47L2.52 10.34L2.45 10.2L2.37 10.05L2.29 9.9L2.21 9.73L2.14 9.56L2.06 9.38L1.99 9.2L1.92 9L1.85 8.81L1.78 8.6L1.72 8.39L1.66 8.18L1.61 7.96L1.56 7.74L1.52 7.51L1.48 7.28L1.45 7.05L1.42 6.81L1.41 6.57L1.4 6.33L1.4 6.09L1.4 5.84L1.42 5.6L1.44 5.35L1.48 5.1L1.52 4.86L1.58 4.61L1.64 4.37L1.72 4.12L1.81 3.88L1.92 3.64L2.03 3.4L2.16 3.17L2.31 2.94L2.59 2.55L2.89 2.19L3.19 1.86L3.49 1.57L3.8 1.31L4.11 1.07L4.42 0.86L4.74 0.68L5.05 0.52L5.37 0.39L5.69 0.28L6 0.19L6.31 0.12L6.62 0.06L6.92 0.02L7.22 0L7.51 0L7.8 0L8.08 0.02ZM6.74 1.64L6.9 1.84L6.92 2.1L6.83 2.36L6.64 2.58L6.35 2.72L6.03 2.82L5.72 2.81L5.46 2.7L5.26 2.5L5.24 2.24L5.33 1.98L5.52 1.76L5.81 1.62L6.15 1.52L6.48 1.53L6.74 1.64Z" id="ejeBdlvlS"></path><linearGradient id="gradientbi0oMYnRj" gradientUnits="userSpaceOnUse" x1="-0.03" y1="18.01" x2="36.04" y2="18.01"><stop style="stop-color: #60efff;stop-opacity: 1" offset="0%"></stop><stop style="stop-color: #1f89c7;stop-opacity: 1" offset="100%"></stop></linearGradient></defs><g><g><use xlink:href="#ejeBdlvlS" opacity="1" fill="url(#gradientbi0oMYnRj)"></use><g><use xlink:href="#ejeBdlvlS" opacity="1" fill-opacity="0" stroke="#000000" stroke-width="1" stroke-opacity="0"></use></g></g></g></svg>